<?xml version="1.0" encoding="UTF-8"?>
<svg id="Layer_2" data-name="Layer 2" xmlns="http://www.w3.org/2000/svg" viewBox="0 0 200 300.5">
  <defs>
    <style>
      .cls-1, .cls-2, .cls-3 {
        fill: #fff;
      }

      .cls-4, .cls-5, .cls-6, .cls-7, .cls-8, .cls-9 {
        fill: none;
      }

      .cls-4, .cls-6, .cls-7, .cls-10, .cls-2, .cls-9, .cls-11, .cls-3 {
        stroke: #000;
      }

      .cls-4, .cls-2, .cls-9 {
        stroke-linejoin: round;
      }

      .cls-5 {
        stroke: #010101;
      }

      .cls-5, .cls-6, .cls-7, .cls-10, .cls-8, .cls-11, .cls-3 {
        stroke-miterlimit: 10;
      }

      .cls-5, .cls-7, .cls-2, .cls-9 {
        stroke-linecap: round;
      }

      .cls-12 {
        fill: #ffc1e8;
        opacity: .5;
      }

      .cls-10 {
        fill: #eaeaea;
      }

      .cls-8 {
        stroke: #d2d2d2;
      }

      .cls-11 {
        fill: #e2e3e2;
      }

      .cls-13 {
        font-family: Cafe24Shiningstar, 'Cafe24 Shiningstar';
        font-size: 5.27px;
      }

      .cls-14 {
        fill: #3bc3ff;
      }

      .cls-15 {
        fill: #efefef;
      }

      .cls-16 {
        fill: #32a6ce;
        font-family: Pretendard-Bold-KSCpc-EUC-H, Pretendard;
        font-size: 40.27px;
        opacity: .4;
      }

      .cls-17 {
        fill: #f2f2f2;
      }
    </style>
  </defs>
  <g id="_배경그림" data-name="배경그림">
    <g>
      <g>
        <path class="cls-3" d="M126.61,51.87c-16.67-15.76-4.77-19.29-11.94-28.04l-15.08,4.93c-3.62-.11,2.28-1.36-5.27,.93-3.93-.62-8.53,3.25-15.13,4.82-8.28,1.97-7.3,14.17-6.06,20.47,.78,3.93,2.2,6.8,3,7.11,0,0-4.74,10.72,5.91,9.12,0,0,18.22,20.21,30.88-5.53l1.69,1.08,11.99-14.89"/>
        <path class="cls-2" d="M79.35,134.27s-20.04,.13-20.32-.89-1.22-7.44,11.62-2.97c0,0-4.28-1.14-7.11-2.09-.98-.33-1.28-1.66-.57-2.46,1.18-1.34,3.97-2.52,10.4-.3,0,0-4.44-1.13-7.14-2.16-1.19-.45-1.31-2.18-.23-2.88,1.44-.93,4.22-1.49,9.1-.19,8.9,2.38,8.32,3.96,8.32,3.96l-4.08,9.98Z"/>
        <rect class="cls-1" x="50.91" y="149.68" width="11.11" height="54.5" transform="translate(112.93 353.86) rotate(-180)"/>
        <path class="cls-11" d="M47.35,214.12l33.25,4.38c.77,.1,1.46-.49,1.56-1.31l.91-8.07c.09-.83-.45-1.58-1.22-1.68l-33.25-4.38c-.77-.1-1.46,.49-1.56,1.31l-.91,8.07c-.09,.83,.45,1.58,1.22,1.68Z"/>
        <ellipse cx="100" cy="293.88" rx="100" ry="6.62"/>
        <g>
          <g>
            <polygon class="cls-1" points="169.47 294.77 155.09 204.87 163.72 204.87 177.07 294.77 169.47 294.77"/>
            <path d="M163.29,205.37l13.19,88.9h-6.59l-14.22-88.9h7.62m.86-1h-9.66l14.54,90.9h8.6l-13.49-90.9h0Z"/>
          </g>
          <polygon class="cls-3" points="130.54 204.37 121.93 204.37 106.75 293.93 113.79 295.27 130.54 204.37"/>
          <polygon class="cls-3" points="163.95 263.92 119.65 263.92 118.96 270.24 165.01 270.42 163.95 263.92"/>
          <rect class="cls-3" x="109.19" y="191.2" width="68.4" height="13.17" rx="2.5" ry="2.5" transform="translate(286.78 395.56) rotate(180)"/>
        </g>
        <g>
          <rect class="cls-3" x="25.81" y="240.6" width="63.51" height="5.27" rx="1" ry="1" transform="translate(115.13 486.46) rotate(-180)"/>
          <g>
            <rect class="cls-1" x="25.09" y="254.27" width="64.96" height="2.95" rx=".25" ry=".25"/>
            <path d="M89.54,254.77v1.95H25.59v-1.95h63.96m.25-1H25.34c-.41,0-.75,.34-.75,.75v2.45c0,.41,.34,.75,.75,.75H89.79c.41,0,.75-.34,.75-.75v-2.45c0-.41-.34-.75-.75-.75h0Z"/>
          </g>
          <g>
            <rect class="cls-17" x="32.41" y="245.64" width="52.74" height="8.92"/>
            <path d="M84.66,246.14v7.92H32.91v-7.92h51.74m1-1H31.91v9.92h53.74v-9.92h0Z"/>
          </g>
          <line class="cls-8" x1="81.99" y1="248.5" x2="38.02" y2="248.5"/>
          <line class="cls-8" x1="81.99" y1="252.12" x2="38.02" y2="252.12"/>
        </g>
        <rect class="cls-10" x="20.65" y="287.91" width="62.41" height="7.53" rx=".53" ry=".53" transform="translate(103.71 583.36) rotate(-180)"/>
        <rect class="cls-1" x="73.75" y="288.57" width="1.68" height="6.23" transform="translate(149.19 583.38) rotate(-180)"/>
        <rect class="cls-1" x="28.72" y="288.57" width="1.68" height="6.23" transform="translate(59.12 583.38) rotate(-180)"/>
        <g>
          <g>
            <g>
              <path class="cls-14" d="M31.74,270.96h61.34c.3,0,.54,.24,.54,.54v14.59c0,.3-.24,.54-.54,.54H31.74c-.3,0-.54-.24-.54-.54v-14.6c0-.3,.24-.54,.54-.54Z"/>
              <path class="cls-6" d="M31.74,270.96h61.34c.3,0,.54,.24,.54,.54v14.6c0,.3-.24,.54-.54,.54H31.74c-.3,0-.54-.24-.54-.54v-14.6c0-.3,.24-.54,.54-.54Z"/>
            </g>
            <rect class="cls-1" x="37.3" y="272.3" width="3.72" height="13.02" transform="translate(78.33 557.62) rotate(-180)"/>
          </g>
          <text class="cls-13" transform="translate(79.62 280.63) scale(.93 1)"><tspan x="0" y="0">이종경</tspan></text>
        </g>
        <g>
          <rect class="cls-10" x="14.79" y="258.35" width="62.41" height="11.99" rx=".53" ry=".53" transform="translate(91.98 528.69) rotate(-180)"/>
          <rect class="cls-1" x="61.78" y="259.01" width="9.63" height="10.61" transform="translate(133.19 528.63) rotate(-180)"/>
        </g>
        <g>
          <g>
            <path class="cls-15" d="M16.45,225.96c-2.71,7.72,5.08,12.7,17.22,13.6-5.37-.82-8.87-2.03-8.77-3.85,.05-1,.12-2,.22-2.98h-.02c-3.4-1.77-6.06-4.48-7.82-8.35-.34,.47-.64,1-.83,1.58Z"/>
            <path class="cls-14" d="M19.97,222.06c-1.07,.58-2.03,1.34-2.69,2.32,1.76,3.87,4.42,6.59,7.82,8.35h.02c.1-1.34,.29-2.66,.66-3.93,.24-.87,.59-1.74,1.05-2.56-2.61-.29-4.86-1.82-6.86-4.19Z"/>
            <path class="cls-15" d="M24.9,235.7c-.1,1.82,3.4,3.03,8.77,3.85,2.88,.42,6.3,.71,9.97,.92-4.18-.76-8.01-2.34-11.41-4.9h-.02c-2.37-1.77-4.52-4.03-6.42-6.77-.37,1.26-.56,2.58-.66,3.93-.1,.97-.17,1.98-.22,2.98Z"/>
            <path class="cls-15" d="M19.97,222.06c2,2.37,4.25,3.9,6.86,4.19l.44-.71c1.29-1.92,3.4-3.64,6.82-4.95,0,0-8.82-1.4-14.12,1.48Z"/>
            <path class="cls-14" d="M58.59,223.32c-2.35,1.79-4.76,3.16-7.3,4.14-1.51,.58-3.05,1-4.62,1.29-5.99,1.11-12.43,.08-19.4-3.21l-.44,.71c-.46,.82-.81,1.69-1.05,2.56,1.91,2.74,4.06,5.01,6.42,6.77h.02c3.81,.34,7.62,.58,11.43,.69,3.88-4.4,9.97-6.35,17.69-6.43,2.17-.03,4.25-.84,6.08-2.13,3.81-2.61,9.16-4.06,16.03-4.35-.29-1-.54-1.82-.71-2.37-.17-.53-.56-.92-1.05-1.08l-7.01-2.37h-.02c-4.3,3.35-8.48,4.4-12.56,2.77,0,0-.02,.03-.02,0-1.15,1.13-2.3,2.13-3.49,3.03Z"/>
            <path class="cls-15" d="M34.09,220.58c-3.42,1.32-5.52,3.03-6.82,4.95,6.96,3.29,13.41,4.32,19.4,3.21-3.54-2.37-7.06-5.4-10.55-8.83h-.02c-.71,.21-1.39,.45-2,.66Z"/>
            <path class="cls-14" d="M43.66,236.26c-3.81-.11-7.62-.34-11.43-.69,3.4,2.56,7.23,4.14,11.41,4.9,15.46,.9,35.52,.16,39.87-.03,.61-.03,1.15-.4,1.39-1,.68-1.71,.73-4.14,.46-6.72-13.95,2.71-27.85,3.93-41.7,3.53Z"/>
            <path class="cls-15" d="M41.88,218.68c-2.2,.34-4.1,.74-5.77,1.24,3.49,3.43,7.01,6.46,10.55,8.83,1.56-.29,3.1-.71,4.62-1.29l-9.38-8.77h-.02Z"/>
            <path class="cls-15" d="M47.28,217.58c-1.51,.53-2.86,.79-2.86,.79-.88,.11-1.71,.21-2.52,.32l9.38,8.77c2.54-.97,4.96-2.34,7.3-4.14l-7.96-7.48c-.86,.74-2.15,1.32-3.35,1.74Z"/>
            <path class="cls-15" d="M43.66,236.26c13.85,.4,27.75-.82,41.7-3.53-.34-3.35-1.22-6.9-1.91-9.38-6.86,.29-12.21,1.74-16.03,4.35-1.83,1.29-3.91,2.11-6.08,2.13-7.72,.08-13.8,2.03-17.69,6.43Z"/>
            <path class="cls-15" d="M50.62,215.84l7.96,7.48c1.2-.9,2.35-1.9,3.49-3.03-2.57-1-5.11-3.11-7.57-6.38l-1.81,.08c-.64,.03-1.1,.47-1.42,1.05-.15,.29-.39,.53-.66,.79Z"/>
            <path class="cls-15" d="M62.2,213.6l-7.7,.32c2.47,3.27,5.01,5.37,7.57,6.38,0,.03,.02,0,.02,0,.12-.13,.24-.24,.37-.37,1.49-1.5,2.93-3.19,4.35-5.03l-3.64-1.21c-.2-.05-.34-.08-.98-.08Z"/>
            <path class="cls-15" d="M62.47,219.92c-.12,.13-.24,.24-.37,.37,4.08,1.63,8.26,.58,12.56-2.77l-7.84-2.63c-1.42,1.84-2.86,3.53-4.35,5.03Z"/>
          </g>
          <g>
            <path class="cls-6" d="M41.9,218.68c.81-.11,1.64-.21,2.52-.32,0,0,1.34-.26,2.86-.79,1.2-.42,2.49-1,3.35-1.74,.27-.26,.51-.5,.66-.79,.32-.58,.78-1.03,1.42-1.05l1.81-.08,7.7-.32c.64,0,.78,.03,.98,.08l3.64,1.21,7.84,2.63"/>
            <path class="cls-6" d="M36.11,219.92c1.66-.5,3.57-.9,5.77-1.24"/>
            <path class="cls-6" d="M74.69,217.52l7.01,2.37c.49,.16,.88,.55,1.05,1.08,.17,.55,.42,1.37,.71,2.37,.68,2.48,1.56,6.03,1.91,9.38,.27,2.58,.22,5.01-.46,6.72-.24,.61-.78,.97-1.39,1-4.35,.18-24.4,.92-39.87,.03-3.66-.21-7.08-.5-9.97-.92-5.37-.82-8.87-2.03-8.77-3.85,.05-1,.12-2,.22-2.98,.1-1.34,.29-2.66,.66-3.93,.24-.87,.59-1.74,1.05-2.56l.44-.71c1.29-1.92,3.4-3.64,6.82-4.95,.61-.21,1.29-.45,2-.66"/>
            <path class="cls-6" d="M34.09,220.58s-8.82-1.4-14.12,1.48c-1.07,.58-2.03,1.34-2.69,2.32-.34,.47-.64,1-.83,1.58-2.71,7.72,5.08,12.7,17.22,13.6"/>
            <path class="cls-6" d="M62.11,220.29c.12-.13,.24-.24,.37-.37,1.49-1.5,2.93-3.19,4.35-5.03"/>
            <path class="cls-6" d="M27.27,225.53c6.96,3.29,13.41,4.32,19.4,3.21,1.56-.29,3.1-.71,4.62-1.29,2.54-.97,4.96-2.34,7.3-4.14,1.2-.9,2.35-1.9,3.49-3.03"/>
            <path class="cls-6" d="M32.23,235.57c3.4,2.56,7.23,4.14,11.41,4.9"/>
            <path class="cls-6" d="M25.78,228.8c1.91,2.74,4.06,5.01,6.42,6.77"/>
            <path class="cls-6" d="M85.36,232.73c-13.95,2.71-27.85,3.93-41.7,3.53-3.81-.11-7.62-.34-11.43-.69h-.02"/>
            <path class="cls-4" d="M83.46,223.35c-6.86,.29-12.21,1.74-16.03,4.35-1.83,1.29-3.91,2.11-6.08,2.13-7.72,.08-13.8,2.03-17.69,6.43l-.02,.03"/>
            <path class="cls-6" d="M74.69,217.52h-.02c-4.3,3.35-8.48,4.4-12.56,2.77,0,0-.02,.03-.02,0-2.57-1-5.11-3.11-7.57-6.38"/>
            <polyline class="cls-6" points="58.61 223.35 58.59 223.32 50.62 215.84"/>
            <polyline class="cls-6" points="54.61 225.77 47.28 217.58 47.2 217.5"/>
            <polyline class="cls-6" points="41.88 218.68 41.9 218.68 51.28 227.46 51.36 227.51"/>
            <path class="cls-6" d="M36.09,219.92h.02c3.49,3.43,7.01,6.46,10.55,8.83,.02,0,.07,.03,.1,.05"/>
            <path class="cls-6" d="M19.97,222.06c2,2.37,4.25,3.9,6.86,4.19"/>
            <path class="cls-6" d="M17.28,224.37c1.76,3.87,4.42,6.59,7.82,8.35"/>
          </g>
        </g>
        <path class="cls-11" d="M52.75,214.12l33.25,4.38c.77,.1,1.46-.49,1.56-1.31l.91-8.07c.09-.83-.45-1.58-1.22-1.68l-33.25-4.38c-.77-.1-1.46,.49-1.56,1.31l-.91,8.07c-.09,.83,.45,1.58,1.22,1.68Z"/>
        <path class="cls-11" d="M52.75,214.12l33.25,4.38c.77,.1,1.46-.49,1.56-1.31l.91-8.07c.09-.83-.45-1.58-1.22-1.68l-33.25-4.38c-.77-.1-1.46,.49-1.56,1.31l-.91,8.07c-.09,.83,.45,1.58,1.22,1.68Z"/>
        <path class="cls-7" d="M131.49,163.55c2.29,6.03,5.78,10.77,10.48,14.19"/>
        <g>
          <path class="cls-1" d="M71.52,165.58c2.1,.87,3.84,2.29,5.28,4.14,12.41,9.85,43.65,32.04,83.69,15.26-4.52-3-8.26-4.32-9.72-8.67-1.47-4.37-14.24-17.39-14.24-17.39,0,0-28.7,3.19-48.34-18.47-4.13-3.85-30.61-5.48-35.57,.76-4.62,4.06,4.49,62.26,4.49,62.26l26.36,3.48s2.25-25.98-6.67-37.23c-2.64-2.13-4.45-3.66-5.28-4.14Z"/>
          <g>
            <path class="cls-4" d="M76.8,169.72c12.41,9.85,43.65,32.04,83.69,15.26-4.52-3-8.26-4.32-9.72-8.67-1.47-4.37-14.24-17.39-14.24-17.39,0,0-28.7,3.19-48.34-18.47-4.13-3.85-30.61-5.48-35.57,.76-4.62,4.06,4.49,62.26,4.49,62.26l26.36,3.48s2.25-25.98-6.67-37.23c-1.44-1.84-3.18-3.27-5.28-4.14"/>
            <path class="cls-4" d="M71.18,165.42c.12,.05,.24,.08,.34,.16"/>
            <path class="cls-6" d="M50.88,203.36s-2.3-61.78,1.73-62.15"/>
            <path class="cls-7" d="M73.64,172.64c-3.52-2.42-7.84-3.29-12.12-3.74"/>
          </g>
        </g>
        <g>
          <g>
            <path class="cls-14" d="M135.61,158.92v.03c6.64,4.48,10.31,10.04,14.39,17.36,2.52,4.74,7.23,8.01,14.22,9.77,0,0,6.77-4.43,5.42-11.54,18.64-6.03,19.01-37.04,.17-94.27,16.59-9.27,14.14-26.74-.39-35.78-10.19-6.38-22.82-5.82-33.2,.24-9.01,5.27-16.07,12.96-21.62,22.03-.34,5.74,0,10.64,1.07,14.65-3.81,2.95-4.64,10.25-2.83,21.34,.95,5.88,2.66,12.83,5.06,20.79,1.1,.34,2.15,.76,3.18,1.26,.59,.24,1.15,.5,1.71,.82-.59-.29-1.15-.55-1.71-.82-1.1-.5-2.15-.92-3.15-1.19,0-.03-.02-.05-.02-.08-2.37-.84-4.86-1.45-7.43-1.82-5.81-.9-12.09-.69-18.79,.37l-2.98-1.34c-1.15-.53-2.49-.21-3.3,.82-4.03,5.14-6.57,10.38-6.18,16.23,2.86,.03,5.74,.95,8.65,3.14,13.88,13.88,30.02,18.94,47.73,18Z"/>
            <path class="cls-14" d="M112.85,102.74c-2.49,4.72-3.15,11.14-2.37,18.94v.03c2.57,.37,5.06,.97,7.43,1.82-2.39-7.96-4.1-14.91-5.06-20.79Z"/>
          </g>
          <g>
            <path class="cls-9" d="M124.55,126.54c-.59-.32-1.17-.63-1.76-.92s-1.15-.55-1.71-.82c-1.1-.5-2.15-.92-3.15-1.19,0-.03-.02-.05-.02-.08-2.39-7.96-4.1-14.91-5.06-20.79-1.81-11.09-.98-18.39,2.83-21.34-1.07-4-1.42-8.91-1.07-14.65,5.55-9.06,12.61-16.76,21.62-22.03,10.38-6.06,23.01-6.61,33.2-.24,14.54,9.04,16.98,26.51,.39,35.78,18.83,57.23,18.47,88.24-.17,94.27,1.34,7.11-5.42,11.54-5.42,11.54-6.99-1.77-11.7-5.03-14.22-9.77-4.08-7.32-7.74-12.88-14.39-17.36"/>
            <path class="cls-9" d="M147,97.98c1.95,28.67,.59,52.4-11.24,60.94h-.15c-17.71,.95-33.86-4.11-47.73-18-2.91-2.19-5.79-3.11-8.65-3.14-.39-5.85,2.15-11.09,6.18-16.23,.81-1.03,2.15-1.34,3.3-.82l2.98,1.34c6.69-1.05,12.97-1.26,18.79-.37,2.57,.37,5.06,.97,7.43,1.82,1.1,.34,2.15,.76,3.18,1.26,.59,.24,1.15,.5,1.71,.82"/>
            <path class="cls-9" d="M147.73,114.86c2.22,0,3.86-3.5,5.23-8.59"/>
            <path class="cls-6" d="M112.95,102.51c-.05,.08-.07,.16-.1,.24-2.49,4.72-3.15,11.14-2.37,18.94"/>
          </g>
        </g>
        <path class="cls-9" d="M142.75,153.24c4.87,2.52,8.45,5.52,12.46,9.55"/>
        <path class="cls-9" d="M155.21,62.92c-12.47,2.59-23.53,7.92-33.33,15.68"/>
        <path class="cls-9" d="M166.32,76.69c-7.22-6.02-14.36-10.32-21.34-10.92"/>
        <g>
          <g>
            <path class="cls-15" d="M14.82,86.49l33.61,49.88,4.64-4.29-.46-.05s-28.92-41.63-28.92-41.89-8.35-3.21-8.87-3.64Z"/>
            <polygon class="cls-15" points="48.43 136.36 79.24 137.79 79.36 134.28 53.07 132.07 48.43 136.36"/>
          </g>
          <g>
            <path class="cls-9" d="M14.82,86.49c.51,.42,8.87,3.37,8.87,3.64s28.92,41.89,28.92,41.89l.46,.05,26.29,2.21-.12,3.5-30.8-1.42L14.82,86.49l-.02-.03"/>
            <line class="cls-9" x1="48.43" y1="136.36" x2="53.07" y2="132.07"/>
          </g>
        </g>
        <path class="cls-9" d="M91.22,66.49c.51,2.68-3.28,8.94-4.87,8.41"/>
        <ellipse cx="79.82" cy="56.13" rx="1.9" ry="2.05"/>
        <path class="cls-9" d="M107.93,31.37c-2.34,3.23-2.52,6.84-.53,10.84"/>
        <path class="cls-9" d="M112.45,39.28c-.73-3.22-2.52-4.92-6.32-3.71"/>
        <ellipse class="cls-12" cx="85.58" cy="59.35" rx="5.03" ry="2.03" transform="translate(-18.25 51.24) rotate(-30.27)"/>
        <path class="cls-5" d="M76.13,49.41c-2.01,.49-3.56,1.4-4.89,3.1"/>
        <path d="M63.19,49.63c2,1.74,4.03,2.27,6.03,1.61,1.37,4.32,3.21,7.62,5.43,8.72-.9-1.69-1.28-3.19-1.53-4.98,.15,.03-.15-.03,0,0,5.11,.55,9.45-.79,12.36-5.8-5.11-.24-9.21-2-11.24-6.96,6.79,2.9,12.95,3.48,17.81-.71-4.13-.84-7.48-2.1-7.77-5.64,3.69,.34,8.11-1.45,10.87-2.24,.02,0,.05,.03,.05,.03,4.62,1.55,8.11,3.77,8.11,3.77-1.98-6.98-.86-9.56,4.49-10.06,5.62-.11,12.29,8.8,4.49,19.37l4.84-2.16c1.93,3.35,5.13,5.59,9.09,7.14t.02,0c-3.42-4.58,3-8.98,5.23-13.6-7.91,2.42-7.94-11.48-16.71-14.88-7.81-1.78-44.95,10.35-47.49,17.09,.95,5.43-.95,7.98-4.1,9.3Z"/>
        <g>
          <g>
            <path class="cls-1" d="M63.76,35.06s-21.26,6.17-17.32,10.23c2.82,2.92,36.85-9.68,55.84-17.02v-.03c-13.44,3.25-26.38,5.67-38.52,6.81Z"/>
            <path class="cls-1" d="M62.51,26.65c.11,4.85,1.25,8.41,1.25,8.41,12.15-1.15,25.08-3.57,38.52-6.81v.03c7.47-2.88,12.6-4.96,12.6-4.96,0,0-5.38-28.48-32.48-21.8-17.25,4.25-20.11,16.67-19.89,25.13Z"/>
          </g>
          <g>
            <path class="cls-6" d="M62.51,26.65c-.22-8.47,2.63-20.88,19.89-25.13,27.11-6.67,32.48,21.8,32.48,21.8,0,0-5.13,2.08-12.6,4.96-18.99,7.34-53.03,19.94-55.84,17.02-3.94-4.06,17.32-10.23,17.32-10.23,0,0-1.14-3.56-1.25-8.41Z"/>
            <path class="cls-6" d="M63.76,35.06c12.15-1.15,25.08-3.57,38.52-6.81"/>
            <path class="cls-9" d="M75.39,22.67l-4.79-4.14,2.23,9.34-6.94-6.14c-.16,2.63-1.11,4.45-3.36,4.92"/>
          </g>
        </g>
        <path class="cls-7" d="M101.05,23.6c-1.61-8.5-4.85-15.55-13.16-18.1"/>
        <text class="cls-16" transform="translate(167.41 136.26) rotate(-17.24) scale(.84 1) skewX(-2.74)"><tspan x="0" y="0">J</tspan></text>
        <path class="cls-7" d="M69.98,113.32c-3.1-.97-6.87,.56-8.55,3.49"/>
        <path class="cls-7" d="M67.7,110.53c-3.1-.97-5.49,0-7.17,2.92"/>
      </g>
      <path class="cls-6" d="M42.18,225.41c-3.81,1.2-7.38-.15-10.73-3.59"/>
    </g>
  </g>
</svg>