<?xml version="1.0" encoding="UTF-8"?>
<svg id="Layer_2" data-name="Layer 2" xmlns="http://www.w3.org/2000/svg" viewBox="0 0 500 400">
  <defs>
    <style>
      .cls-1 {
        fill: #f2f2f2;
      }
    </style>
  </defs>
  <g id="_배경그림" data-name="배경그림">
    <path class="cls-1" d="M483.27,255.97c-4.48,77.48-61.97,139.38-138.98,143.79-26.26,1.49-51.76-3.87-74.83-14.61-19.05,7.5-39.94,12.19-62.12,13.46C103.8,404.51,11.39,333.71,.96,240.47c-4.37-39.14,6.38-76.01,28.01-106.05-5.33-13.34-7.45-27.41-5.74-41.64C30.54,31.94,105.13-8.87,189.85,1.65c17.54,2.18,34.13,6.39,49.35,12.23,25.61-8.49,55.43-11.58,86.64-7.7,51.32,6.37,94.58,30.13,119.08,61.39,28.84,24.2,49.41,60.82,54.09,102.65,3.55,31.65-2.56,61.38-15.73,85.75Z"/>
  </g>
</svg>