<?xml version="1.0" encoding="UTF-8"?>
<svg id="Layer_2" data-name="Layer 2" xmlns="http://www.w3.org/2000/svg" xmlns:xlink="http://www.w3.org/1999/xlink" viewBox="0 0 201 251">
  <defs>
    <style>
      .cls-1, .cls-2, .cls-3 {
        fill: #fff;
      }

      .cls-4, .cls-5, .cls-2, .cls-6, .cls-7, .cls-8, .cls-9, .cls-10, .cls-11, .cls-3 {
        stroke: #000;
      }

      .cls-4, .cls-5, .cls-6, .cls-12, .cls-8, .cls-10, .cls-3 {
        stroke-miterlimit: 10;
      }

      .cls-4, .cls-12, .cls-9 {
        fill: none;
      }

      .cls-5 {
        fill: #eaeaea;
      }

      .cls-2, .cls-7, .cls-9, .cls-13, .cls-11 {
        stroke-linecap: round;
        stroke-linejoin: round;
      }

      .cls-6, .cls-11, .cls-14 {
        fill: #efefef;
      }

      .cls-12 {
        stroke: #d2d2d2;
      }

      .cls-7, .cls-15, .cls-10, .cls-16 {
        fill: #3bc3ff;
      }

      .cls-8 {
        fill: #e8e8e8;
      }

      .cls-17 {
        clip-path: url(#clippath-1);
      }

      .cls-13 {
        stroke: #fff;
      }

      .cls-18 {
        fill: #ffbee7;
      }

      .cls-19 {
        clip-path: url(#clippath);
      }

      .cls-16 {
        font-family: Pretendard-SemiBold-KSCpc-EUC-H, Pretendard;
        font-size: 5.87px;
      }

      .cls-20 {
        fill: #f2f2f2;
      }
    </style>
    <clipPath id="clippath">
      <path class="cls-6" d="M114.12,168.15s-7.2,7.28-3.97,18.17c4.63,4.99,44.12,1.76,43.59-1.57,0-6.23-8.29-9.84-17.57-14.7-5.68-5.8-9.98-6.35-12.24,.98-5.4,5.44-8.92,5.24-9.81-2.88Z"/>
    </clipPath>
    <clipPath id="clippath-1">
      <path class="cls-6" d="M83.06,168.15s-6.75,7.28-3.72,18.17c4.34,4.99,41.38,1.76,40.88-1.57,0-6.23-7.77-9.84-16.48-14.7-5.32-5.8-9.36-6.35-11.48,.98-5.06,5.44-8.36,5.24-9.21-2.88Z"/>
    </clipPath>
  </defs>
  <g id="_배경그림" data-name="배경그림">
    <g>
      <g>
        <path class="cls-3" d="M99.8,218.93h100.7v31.57H100.8c-1.82,0-3.31-1.48-3.31-3.31v-25.96c0-1.27,1.03-2.3,2.3-2.3Z" transform="translate(298 469.43) rotate(-180)"/>
        <path class="cls-3" d="M65.23,188.15h103.21v30.78H68.54c-1.82,0-3.31-1.48-3.31-3.31v-27.48h0Z" transform="translate(233.68 407.08) rotate(-180)"/>
        <path class="cls-3" d="M32.97,157.4h103.21v30.78H36.28c-1.82,0-3.31-1.48-3.31-3.31v-27.48h0Z" transform="translate(169.15 345.58) rotate(-180)"/>
        <polygon class="cls-8" points=".5 157.36 .5 250.5 97.5 250.5 97.5 218.93 65.44 218.93 65.44 188.15 33.18 188.15 33.18 157.36 .5 157.36"/>
      </g>
      <path class="cls-3" d="M130.02,157.71v12.21c-9.04,7.1-14.35,6.88-15.91-.65l1.19-10.52,14.71-1.04Z"/>
      <g>
        <path class="cls-14" d="M114.12,168.15s-7.2,7.28-3.97,18.17c4.63,4.99,44.12,1.76,43.59-1.57,0-6.23-8.29-9.84-17.57-14.7-5.68-5.8-9.98-6.35-12.24,.98-5.4,5.44-8.92,5.24-9.81-2.88Z"/>
        <g class="cls-19">
          <g>
            <path class="cls-15" d="M130.16,163.58l19.16,14.58c-20.1,4.12-26.54,2.88-25.06-6.78,1.5-9.66,5.9-7.8,5.9-7.8Z"/>
            <path class="cls-4" d="M124.26,171.38c-1.49,9.65,4.96,10.9,25.06,6.78l-19.16-14.58s-4.4-1.86-5.9,7.8Z"/>
          </g>
        </g>
        <path class="cls-4" d="M114.12,168.15s-7.2,7.28-3.97,18.17c4.63,4.99,44.12,1.76,43.59-1.57,0-6.23-8.29-9.84-17.57-14.7-5.68-5.8-9.98-6.35-12.24,.98-5.4,5.44-8.92,5.24-9.81-2.88Z"/>
      </g>
      <path class="cls-6" d="M145.05,175.43l-9.48,2.3-9.95-7.04c2.5-.89,5.54-1.44,9.12-1.65l10.31,6.39"/>
      <path class="cls-4" d="M133.1,175.99c2.39-1.4,5.42-2.16,9-2.38"/>
      <path class="cls-4" d="M130.98,174.48c2.49-1.52,5.25-2.5,8.49-2.51"/>
      <path class="cls-4" d="M128.41,172.66c2.41-1.38,5.3-2.09,8.6-2.22"/>
      <g>
        <g>
          <path class="cls-15" d="M151.39,185.37h-7.89c2.55-5.08,5.19-4.01,7.89,0Z"/>
          <path class="cls-15" d="M132.71,185.37c-5.95,.42-13.95-1.43-22.42-3.8v-6.77s3.39,6.03,9.12,6.03c10.1,.45,13.3,4.54,13.3,4.54Z"/>
        </g>
        <g>
          <path class="cls-9" d="M132.71,185.37s-3.21-4.09-13.3-4.54c-5.73,0-9.12-6.03-9.12-6.03v6.77c8.47,2.37,16.47,4.21,22.42,3.8Z"/>
          <path class="cls-9" d="M151.39,185.37c-2.69-4.01-5.33-5.08-7.89,0"/>
          <line class="cls-9" x1="151.39" y1="185.37" x2="153.4" y2="185.37"/>
          <line class="cls-9" x1="132.71" y1="185.37" x2="143.5" y2="185.37"/>
        </g>
      </g>
      <g>
        <path class="cls-15" d="M151.39,185.37c1.65,2.3-4.82,2.47-10.86,2.76,1.55-.27,2.33-1.44,2.97-2.76h7.89Z"/>
        <path class="cls-9" d="M143.5,185.37c-.64,1.32-1.42,2.48-2.97,2.76,6.04-.28,12.5-.46,10.86-2.76"/>
      </g>
      <path class="cls-3" d="M97.98,157.71v12.21c-8.48,7.1-13.46,6.88-14.92-.65l1.12-10.52,13.8-1.04Z"/>
      <g>
        <g>
          <path class="cls-2" d="M99.71,60.19c1.45-2.72-3.93-3.57-4.52-11.07h-10.72s1.72,8.68,1.72,8.68l13.51,2.4Z"/>
          <path class="cls-2" d="M145.02,87.81s-.57-4.57,1.98-4.97,8.41-1.38,8.76-2.82,4.69-1.96,4.69-4.44-4.18,0-4.18,0c0,0,5.97-2.09,5.42-3.46s-4.69,0-4.69,0c0,0,5.66-3.14,4.72-4.71s-4.35,0-4.35,0c0,0,4.65-3.01,4.17-5.03-.48-2.03-3.22-1.96-3.22-1.96l-15.5,5.26s.32-4.61-1.55-4.74c-3.17-.2-2.28,5.16-2.28,5.16-3.46,3.79-3.13,8.28-.12,13.27l-4.82,8.89,10.95-.44Z"/>
          <g>
            <g>
              <path class="cls-15" d="M28.53,104.27c3.52,8.49,28.54-.85,28.54-.85l-10.81,18.46c-4.22,8.52-1.38,7.53,3.59,3.68-7.8,6.86-11.19,14.21-6.57,20.47,6.12-11.93,15.8-22.25,27.86-31.49l57.05-11.77c-4.52-41.83-37.2-44.96-37.2-44.96,0,0-12.34,.59-30.48,4.05s-31.98,42.41-31.98,42.41Z"/>
              <path class="cls-9" d="M90.99,57.8s32.68,3.13,37.2,44.96l-57.05,11.77c-12.05,9.25-21.74,19.56-27.86,31.49-4.62-6.26-1.23-13.61,6.57-20.47-4.97,3.85-7.81,4.84-3.59-3.68l10.81-18.46s-25.03,9.34-28.54,.85c0,0,13.85-38.95,31.98-42.41s30.48-4.05,30.48-4.05Z"/>
            </g>
            <polyline class="cls-9" points="47.27 97.92 51.34 100.08 41.41 101.13"/>
            <polyline class="cls-9" points="59.93 84 55.38 100.67 58.2 104.2"/>
            <path class="cls-9" d="M108.94,76.78c.71,3.44,1.22,6.81,.93,9.9"/>
            <path class="cls-2" d="M66.46,101.13l-25.67,6.93c-2.34,2.35,1.1,12.94,6.89,12.42s27.8-11.81,27.8-11.81l-9.03-7.53Z"/>
            <path class="cls-2" d="M68.9,102.92l-4.01-.39,21.51-19.21c15.04-1.94,26.44,2.17,35.92,9.48"/>
            <path class="cls-2" d="M65.11,113.14l-.91-6.1,21.58-18.92c13.59-1.55,25.87-.21,36.54,4.67,9.95-5.32,20.38-7.69,32.13-2.03v3.49s-89.34,18.88-89.34,18.88Z"/>
            <g>
              <g>
                <polygon class="cls-14" points="64.2 113.93 96.19 113.93 116.45 92.79 87.37 93.74 64.2 113.93"/>
                <path class="cls-14" d="M116.45,92.79l-20.26,21.14h12.82l19.16-22.02c-4.64,3.98-8.55,4.27-11.72,.88Z"/>
                <polygon class="cls-14" points="128.18 91.91 109.02 113.93 135.49 113.93 157.41 94.52 128.18 91.91"/>
              </g>
              <g>
                <polygon class="cls-9" points="96.19 113.93 64.2 113.93 87.37 93.74 116.45 92.79 96.19 113.93"/>
                <polygon class="cls-9" points="109.02 113.93 135.49 113.93 157.41 94.52 128.18 91.91 109.02 113.93"/>
                <path class="cls-9" d="M128.18,91.91c-4.64,3.98-8.55,4.27-11.72,.88"/>
                <line class="cls-9" x1="109.02" y1="113.93" x2="96.19" y2="113.93"/>
              </g>
            </g>
          </g>
          <path class="cls-2" d="M144.68,78.67l7.42,.91c1.97,.24,3.77-1.08,4.02-2.94l2.47-18.14c.25-1.86-1.14-3.57-3.1-3.81l-7.42-.91c-1.97-.24-3.77,1.08-4.02,2.94l-2.47,18.14c-.25,1.86,1.14,3.57,3.1,3.81Z"/>
          <path class="cls-2" d="M90.47,57.81s-4.76-9.28,9.17-9.02c9.81,.39,5.86-16.67,5.86-16.67,0,0,3.52-3.2,2.96-4.51s-6-2.22-6.27-2.81-5.58-16.36-7.1-16.36-23.37,8.84-23.37,8.84l3.3,12.92c3.6,2.24,4.97,4.84,6.21,7.47,0,0-3.64-8.97-9.3-7.41-2.11,.58-3.49,2.48-3.69,4.56-.91,9.4,10.11,8.4,10.11,8.4h-4.31c4.49,4.41,7.16,9.56,2.05,16.09l14.37-1.51Z"/>
          <path class="cls-2" d="M103.29,18.26s5.02-5.49-8.46-14.86c-2.43-1.69-5.33-2.69-8.34-2.84-3.3-.17-7.54,.03-10.09,1.76,0,0-22.06-1.44-23.37,16.53-1.31,17.97,5.24,19.87,4.62,30.85-.62,10.98-9.21,10.64-8.5,18.92,0,0,11.76-7.92,27.19-9.63,3.29-6.58,3.02-12.27-3.44-16.42-1.81-1.16-3.39-2.63-4.56-4.38-.89-1.33-1.68-2.68-1.52-3.07,4.74-4.44,7.86-9.51,8.93-15.36-1.47,4.38-2.33,9.02-4.72,10.67-.35,.04,4.32-.58,8.11,3.54l-3.35-4.15c5.43-4.11,5.59-10.08,2.9-17.06,3.22,4.66,5.97,9.3,4,13.72,4.67-.85,8.59-2.29,10.41-5.42-.64-4.47-1.44-8.74-3.65-11.24l8.2,10.26c-.08-5.35-1.73-10.13-6.55-13.79,5.27,4.14,10.31,8.24,12.2,11.96Z"/>
          <ellipse cx="96.19" cy="23.75" rx="1.38" ry="1.31"/>
          <ellipse class="cls-18" cx="95.78" cy="28.42" rx="3.93" ry="1.8"/>
          <path class="cls-9" d="M103.5,37.01c-3.47,.91-6.53,.61-9.17-.91"/>
          <path class="cls-9" d="M81.23,37.69c.19-3.54,0-8.71-2.68-10.72"/>
          <path d="M149.82,57.12l3.48,.43c.27,.03,.51-.15,.54-.4l.02-.12c.03-.25-.15-.48-.42-.52l-3.48-.43c-.27-.03-.51,.15-.54,.4l-.02,.12c-.03,.25,.15,.48,.42,.52Z"/>
        </g>
        <path class="cls-2" d="M66.82,35.12c-1.74,2.32-2.01,4.64-.82,6.96"/>
        <path class="cls-9" d="M70.49,34.35c3.28-.15,5.8,.74,6.76,3.79"/>
        <path class="cls-9" d="M73.87,39.29c-.23-1.44,0-2.88,.68-4.32"/>
      </g>
      <path d="M43.84,147.37l2.96,7.02c.54,1.29,1.85,2.15,3.31,2.19l30.16,.82h57.19s0-41.08,0-41.08c0-1.31-1.13-2.37-2.51-2.36l-63.82,.57c-11.97,10.16-22.46,20.24-27.2,30.05-.43,.88-.47,1.89-.09,2.79Z"/>
      <line class="cls-13" x1="81.56" y1="125.74" x2="81.56" y2="144.46"/>
      <path class="cls-13" d="M106.59,115.15c1.13,7.25,1.02,16.88,.36,27.55"/>
      <path class="cls-11" d="M112.41,158.9l25.13-1.89c1.45-.11,2.54-1.32,2.42-2.7l-.5-5.95c-.12-1.38-1.39-2.41-2.84-2.3l-25.13,1.89c-1.45,.11-2.54,1.32-2.42,2.7l.5,5.95c.12,1.38,1.39,2.41,2.84,2.3Z"/>
      <path class="cls-11" d="M81.74,158.9l25.13-1.89c1.45-.11,2.54-1.32,2.42-2.7l-.5-5.95c-.12-1.38-1.39-2.41-2.84-2.3l-25.13,1.89c-1.45,.11-2.54,1.32-2.42,2.7l.5,5.95c.12,1.38,1.39,2.41,2.84,2.3Z"/>
      <g>
        <path class="cls-14" d="M83.06,168.15s-6.75,7.28-3.72,18.17c4.34,4.99,41.38,1.76,40.88-1.57,0-6.23-7.77-9.84-16.48-14.7-5.32-5.8-9.36-6.35-11.48,.98-5.06,5.44-8.36,5.24-9.21-2.88Z"/>
        <g class="cls-17">
          <path class="cls-10" d="M92.58,171.37c-1.4,9.66,4.64,10.9,23.49,6.78l-17.96-14.57s-4.14-1.86-5.53,7.79Z"/>
        </g>
        <path class="cls-4" d="M83.06,168.15s-6.75,7.28-3.72,18.17c4.34,4.99,41.38,1.76,40.88-1.57,0-6.23-7.77-9.84-16.48-14.7-5.32-5.8-9.36-6.35-11.48,.98-5.06,5.44-8.36,5.24-9.21-2.88Z"/>
      </g>
      <path class="cls-6" d="M112.07,175.43l-8.89,2.3-9.33-7.04c2.34-.89,5.2-1.44,8.56-1.65l9.67,6.39"/>
      <path class="cls-4" d="M100.87,175.99c2.24-1.4,5.09-2.16,8.44-2.38"/>
      <path class="cls-4" d="M98.88,174.48c2.34-1.52,4.93-2.5,7.96-2.51"/>
      <path class="cls-4" d="M96.47,172.66c2.26-1.38,4.97-2.09,8.06-2.22"/>
      <g>
        <g>
          <path class="cls-15" d="M118.02,185.37h-7.39c2.39-5.08,4.87-4.01,7.39,0Z"/>
          <path class="cls-15" d="M100.5,185.37c-5.58,.42-13.08-1.43-21.03-3.8v-6.77s3.17,6.03,8.56,6.03c9.47,.45,12.47,4.54,12.47,4.54Z"/>
        </g>
        <g>
          <path class="cls-9" d="M100.5,185.37s-3-4.09-12.47-4.54c-5.39,0-8.56-6.03-8.56-6.03v6.77c7.95,2.37,15.45,4.21,21.03,3.8Z"/>
          <path class="cls-9" d="M118.02,185.37c-2.52-4.01-5-5.08-7.39,0"/>
          <line class="cls-9" x1="118.02" y1="185.37" x2="119.91" y2="185.37"/>
          <line class="cls-9" x1="100.5" y1="185.37" x2="110.62" y2="185.37"/>
        </g>
      </g>
      <path class="cls-7" d="M110.62,185.36c-.6,1.32-1.33,2.48-2.78,2.76,5.65-.29,11.73-.46,10.18-2.76"/>
    </g>
    <g>
      <g>
        <polygon points="33.55 135.12 33.55 137.47 31.03 137.47 31.03 137.3 15.77 137.3 15.79 137.47 14.66 137.47 14.66 135.12 16.37 135.12 16.37 135.42 31.84 135.42 31.84 135.12 33.55 135.12"/>
        <rect x="16.37" y="135.12" width="15.47" height=".3"/>
        <polygon points="31.84 133.49 31.84 135.12 16.37 135.12 16.37 133.49 24.92 133.49 31.84 133.49"/>
        <polygon points="31.84 131.57 31.84 133.49 24.92 133.49 24.92 132.53 27.71 131.57 31.84 131.57"/>
        <path class="cls-1" d="M31.03,137.47v19.89h-13.67l-.27-3.39-.93-11.71-.38-4.79h15.25Zm-.43,16.49v-11.71h-13.99l.87,11.71h13.11Z"/>
        <polygon points="31.03 137.3 31.03 137.47 15.79 137.47 15.77 137.3 31.03 137.3"/>
        <polygon class="cls-15" points="30.6 142.25 30.6 153.96 17.49 153.96 16.62 142.25 30.6 142.25"/>
      </g>
      <polyline class="cls-4" points="31.03 137.47 31.03 157.35 17.37 157.35 17.09 153.96 16.17 142.25 15.79 137.47"/>
    </g>
    <g>
      <rect class="cls-5" x="100.74" y="197.87" width="49.55" height="8.83" rx=".53" ry=".53" transform="translate(251.03 404.57) rotate(-180)"/>
      <rect class="cls-1" x="138.05" y="198.36" width="7.64" height="7.81" transform="translate(283.75 404.52) rotate(-180)"/>
    </g>
    <g>
      <rect class="cls-3" x="106.13" y="185.9" width="49.08" height="3.78" rx="1" ry="1" transform="translate(261.33 375.57) rotate(-180)"/>
      <g>
        <rect class="cls-1" x="105.68" y="195.84" width="49.97" height="1.83" rx=".25" ry=".25"/>
        <path d="M155.15,196.34v.83h-48.97v-.83h48.97m.25-1h-49.47c-.41,0-.75,.34-.75,.75v1.33c0,.41,.34,.75,.75,.75h49.47c.41,0,.75-.34,.75-.75v-1.33c0-.41-.34-.75-.75-.75h0Z"/>
      </g>
      <g>
        <rect class="cls-20" x="111.35" y="189.66" width="40.53" height="6.11"/>
        <path d="M151.38,190.16v5.11h-39.53v-5.11h39.53m1-1h-41.53v7.11h41.53v-7.11h0Z"/>
      </g>
      <line class="cls-12" x1="149.55" y1="191.56" x2="115.56" y2="191.56"/>
      <line class="cls-12" x1="149.55" y1="194.15" x2="115.56" y2="194.15"/>
    </g>
    <text class="cls-16" transform="translate(145.94 69.46) rotate(7.34)"><tspan x="0" y="0">JK</tspan></text>
  </g>
</svg>