<?xml version="1.0" encoding="UTF-8"?>
<svg id="Layer_2" data-name="Layer 2" xmlns="http://www.w3.org/2000/svg" viewBox="0 0 18.72 12.52">
  <defs>
    <style>
      .cls-1 {
        fill: #fff;
      }
    </style>
  </defs>
  <g id="_커피_연기" data-name="커피 연기">
    <g>
      <path class="cls-1" d="M5.66,4.47c.87,0,1.66,.42,2.15,1.06-.31-.63-.96-1.06-1.71-1.06h-.44Z"/>
      <path d="M6.1,4.47h-.44c.87,0,1.66,.42,2.15,1.06-.31-.63-.96-1.06-1.71-1.06h0Z"/>
    </g>
    <g>
      <path class="cls-1" d="M15.98,12.02c-.89,0-1.69-.52-2.04-1.32l-.13-.3H5.14c-.79,0-1.42-.63-1.42-1.42,0-.39,.15-.74,.41-1,.27-.27,.63-.42,1.01-.42H15.98c.69,0,1.34,.32,1.76,.86,.31,.4,.48,.87,.48,1.37,0,1.23-1,2.23-2.24,2.23Z"/>
      <path d="M15.98,8.05c.53,0,1.04,.25,1.37,.68,.17,.21,.37,.57,.37,1.06,0,.95-.78,1.73-1.74,1.73-.69,0-1.31-.4-1.58-1.02l-.26-.6H5.14c-.51,0-.92-.41-.92-.92,0-.25,.09-.48,.28-.66,.17-.17,.39-.26,.64-.26H15.98m0-1H5.14c-.53,0-1.02,.21-1.36,.57-.35,.34-.57,.83-.57,1.36,0,1.06,.86,1.92,1.92,1.92H13.48c.42,.95,1.38,1.62,2.5,1.62,1.51,0,2.74-1.22,2.74-2.73,0-.64-.22-1.22-.58-1.68-.49-.64-1.28-1.06-2.15-1.06h0Z"/>
    </g>
    <g>
      <path class="cls-1" d="M3.67,4.67c-1.72,0-3.17-.96-3.17-2.08S1.95,.5,3.67,.5s3.17,.96,3.17,2.08-1.45,2.08-3.17,2.08Z"/>
      <path d="M3.67,1c1.58,0,2.67,.84,2.67,1.58s-1.1,1.58-2.67,1.58-2.67-.84-2.67-1.58,1.1-1.58,2.67-1.58m0-1C1.65,0,0,1.16,0,2.58s1.65,2.58,3.67,2.58,3.67-1.16,3.67-2.58S5.7,0,3.67,0h0Z"/>
    </g>
  </g>
</svg>