<?xml version="1.0" encoding="UTF-8"?>
<svg id="Layer_2" data-name="Layer 2" xmlns="http://www.w3.org/2000/svg" viewBox="0 0 67.85 69.87">
  <defs>
    <style>
      .cls-1 {
        fill: #fff;
      }

      .cls-2 {
        fill: #3bc3ff;
      }
    </style>
  </defs>
  <g id="heart">
    <g>
      <g>
        <circle class="cls-1" cx="34.81" cy="36.84" r="32.53"/>
        <path d="M34.81,4.81c17.66,0,32.03,14.37,32.03,32.03s-14.37,32.03-32.03,32.03S2.78,54.5,2.78,36.84,17.15,4.81,34.81,4.81m0-1C16.57,3.81,1.78,18.6,1.78,36.84s14.79,33.03,33.03,33.03,33.03-14.79,33.03-33.03S53.06,3.81,34.81,3.81h0Z"/>
      </g>
      <g>
        <circle class="cls-1" cx="33.03" cy="33.03" r="32.53"/>
        <path d="M33.03,1c17.66,0,32.03,14.37,32.03,32.03s-14.37,32.03-32.03,32.03S1,50.69,1,33.03,15.37,1,33.03,1m0-1C14.79,0,0,14.79,0,33.03s14.79,33.03,33.03,33.03,33.03-14.79,33.03-33.03S51.28,0,33.03,0h0Z"/>
      </g>
      <g>
        <circle class="cls-1" cx="33.03" cy="33.03" r="32.53"/>
        <path d="M33.03,1c17.66,0,32.03,14.37,32.03,32.03s-14.37,32.03-32.03,32.03S1,50.69,1,33.03,15.37,1,33.03,1m0-1C14.79,0,0,14.79,0,33.03s14.79,33.03,33.03,33.03,33.03-14.79,33.03-33.03S51.28,0,33.03,0h0Z"/>
      </g>
      <path class="cls-2" d="M40.4,45.57c-11.86-1.68-23.06-3.26-23.31-14.8-.15-6.84,7.65-9.76,13.52-7.68l.11,.02s.9-6.68,9.68-6.68,13.78,13.52,0,29.13Z"/>
    </g>
  </g>
</svg>