<?xml version="1.0" encoding="UTF-8"?>
<svg id="Layer_2" data-name="Layer 2" xmlns="http://www.w3.org/2000/svg" xmlns:xlink="http://www.w3.org/1999/xlink" viewBox="0 0 70.14 60.27">
  <defs>
    <style>
      .cls-1 {
        fill: none;
      }

      .cls-1, .cls-2 {
        stroke: #000;
        stroke-linecap: round;
        stroke-linejoin: round;
      }

      .cls-3 {
        fill: #3bc3ff;
      }

      .cls-2, .cls-4 {
        fill: #31a5c4;
      }

      .cls-5 {
        clip-path: url(#clippath);
      }
    </style>
    <clipPath id="clippath">
      <path class="cls-2" d="M33.27,1.18c-1.28,.22-2.25,.51-2.72,.86,0,0-21.93,53.02-21.11,54.67,.82,1.65,7.33,3.63,8.5,2.89S39.77,15.32,39.77,15.32"/>
    </clipPath>
  </defs>
  <g id="vscode">
    <g>
      <g>
        <path class="cls-4" d="M33.27,1.18c-1.28,.22-2.25,.51-2.72,.86,0,0-21.93,53.02-21.11,54.67,.82,1.65,7.33,3.63,8.5,2.89S39.77,15.32,39.77,15.32"/>
        <g class="cls-5">
          <path class="cls-2" d="M28.54,1.92c2.31-.04,4.34-.11,5.82,.99l1.56-3.85-7.38,2.86Z"/>
        </g>
        <path class="cls-1" d="M33.27,1.18c-1.28,.22-2.25,.51-2.72,.86,0,0-21.93,53.02-21.11,54.67,.82,1.65,7.33,3.63,8.5,2.89S39.77,15.32,39.77,15.32"/>
      </g>
      <g>
        <path class="cls-3" d="M69.64,40.75c.12,1.48-9.92,14.3-11.93,15.19-2.01,.9-56.59-15.28-57.14-17s2.22-7.56,3.33-8.11,49.15,9.58,49.15,9.58l-13.28-25.09-5.98-12.99s-2.84-.37-3.19-.32h-.02c.2-.1,2.68-.83,2.68-.83,5.13-.9,15.14-.82,16.52-.28,1.72,.68,19.73,38.37,19.86,39.85Z"/>
        <g>
          <path class="cls-1" d="M30.58,2.01h-.01"/>
          <path class="cls-1" d="M30.58,2.01c.2-.1,2.68-.83,2.68-.83,5.13-.9,15.14-.82,16.52-.28,1.72,.68,19.73,38.37,19.86,39.85,.12,1.48-9.92,14.3-11.93,15.19-2.01,.9-56.59-15.28-57.14-17s2.22-7.56,3.33-8.11,49.15,9.58,49.15,9.58l-13.28-25.09-5.98-12.99s-2.84-.37-3.19-.32h-.02Z"/>
        </g>
      </g>
    </g>
  </g>
</svg>