<?xml version="1.0" encoding="UTF-8"?>
<svg id="Layer_2" data-name="Layer 2" xmlns="http://www.w3.org/2000/svg" viewBox="0 0 92.39 88.55">
  <defs>
    <style>
      .cls-1 {
        fill: none;
      }

      .cls-1, .cls-2 {
        stroke: #000;
        stroke-miterlimit: 10;
      }

      .cls-3 {
        fill: #3bc3ff;
      }

      .cls-2 {
        fill: #fff;
      }
    </style>
  </defs>
  <g id="up">
    <g>
      <g>
        <path class="cls-3" d="M90.73,29.97s2.46,7.35,.24,8.14c-2.22,.78-9.88-5.94-9.88-5.94,0,0-21.55,35.21-25.36,35.87-3.82,.67-17.37-11.7-19.25-11.17-1.87,.52-19.16,30.86-22.06,31.17-2.89,.31-13.9-7.59-13.9-7.59l.5-7.95L34.31,39.96l20.13,5.01,14.28-19.48s-11.79-6.78-12.52-9.8c-.72-3.01,1.13-7.3,1.13-7.3l33.4,21.58Z"/>
        <path class="cls-1" d="M1.02,72.5l-.5,7.95s11.01,7.9,13.9,7.59c2.9-.31,20.19-30.65,22.06-31.17,1.88-.53,15.43,11.84,19.25,11.17,3.81-.66,25.36-35.87,25.36-35.87,0,0,7.66,6.72,9.88,5.94,2.22-.79-.24-8.14-.24-8.14L57.33,8.39s-1.85,4.29-1.13,7.3c.73,3.02,12.52,9.8,12.52,9.8l-14.28,19.48-20.13-5.01L1.02,72.5Z"/>
      </g>
      <path class="cls-2" d="M2.52,74.81l7.26,5.35c1.76,1.3,4.24,.9,5.5-.88l21.3-30.03,16.7,11.35c1.77,1.1,4.09,.62,5.27-1.1l21.98-33.47,8.75,4.96c.71,.4,1.58-.2,1.43-1.01L85.71,1.3c-.1-.55-.63-.9-1.17-.78l-26.82,6.16c-.8,.18-1.02,1.21-.38,1.71l9.3,6.27-15.44,21.92-16.77-10.59c-1.78-1.08-4.09-.57-5.26,1.16L1.6,69.49c-1.17,1.73-.76,4.08,.92,5.32Z"/>
    </g>
  </g>
</svg>