<svg xmlns="http://www.w3.org/2000/svg" viewBox="0 0 176.29 56.4"><defs><style>.cls-1{fill:#52bfee;}.cls-2{fill:#010101;}</style></defs><g id="Layer_2" data-name="Layer 2"><g id="Layer_8" data-name="Layer 8"><path class="cls-1" d="M0,1.71H6.48v18.5H27.7V1.71h6.48V44.37H27.7V25.75H6.48V44.37H0Z"/><path class="cls-2" d="M41,28.58C40.92,18.74,46.81,12,55.74,12c7.28,0,14.2,4.51,14.2,16.09v2.24H47.2c.17,6.1,3.77,9.55,9,9.55,3.57,0,5.89-1.54,7-3.48h6.36C68.12,41.55,63.19,45,56.15,45,46.72,45,40.92,38.51,41,28.58Zm22.8-3c0-4.87-3.15-8.46-8-8.43-5,0-8.31,3.92-8.58,8.43Z"/><path class="cls-1" d="M88.09,16.91c-3.6,0-6.16,1.86-6.13,4.3,0,1.89,1.47,3.25,5,4.07L92,26.46c5.89,1.33,8.75,4.12,8.78,8.66,0,5.78-4.92,9.9-13.09,9.9-7.69,0-12.22-3.42-13-9.37h6.42c.56,2.89,2.74,4.33,6.54,4.3,4.07,0,6.69-1.67,6.72-4.36,0-2.06-1.56-3.38-5-4.18l-5-1.06c-5.77-1.27-8.78-4.36-8.78-8.78C75.65,15.88,80.6,12,88,12c7.13,0,11.58,3.63,12.2,9.14H94.16C93.57,18.56,91.56,16.91,88.09,16.91Z"/><path class="cls-2" d="M110.12,0a3.85,3.85,0,0,1,3.95,3.71,3.83,3.83,0,0,1-3.95,3.72,3.88,3.88,0,0,1-4-3.72A3.9,3.9,0,0,1,110.12,0Zm-3.18,12.38h6.3v32h-6.3Z"/><path class="cls-2" d="M124.09,0A3.84,3.84,0,0,1,128,3.71a3.82,3.82,0,0,1-3.94,3.72,3.88,3.88,0,0,1-4-3.72A3.9,3.9,0,0,1,124.09,0ZM120.9,12.38h6.31v32H120.9Z"/><path class="cls-2" d="M141.17,44.37h-6.3V1.71h6.3Z"/><path class="cls-2" d="M149.36,56.22V51c.71.06,1.95.09,2.83.12,1.94,0,3.56-.14,5.07-4.18l.76-2.12L146.3,12.38H153l8.08,24.8h.35l8.08-24.8h6.77l-13.2,36.24c-1.85,5.07-5.1,7.75-10.37,7.78A32,32,0,0,1,149.36,56.22Z"/></g></g></svg>