<svg xmlns="http://www.w3.org/2000/svg" viewBox="0 0 700.64 402.06"><defs><style>.cls-1{fill:#bbbbc0;}.cls-2{fill:none;stroke:#fff;stroke-miterlimit:10;}.cls-3{fill:#fff;}.cls-4{opacity:0.7;}</style></defs><g id="Layer_2" data-name="Layer 2"><g id="웹"><path class="cls-1" d="M15.22,0h670.2a14.9,14.9,0,0,1,14.9,14.9V50a0,0,0,0,1,0,0H.32a0,0,0,0,1,0,0V14.9A14.9,14.9,0,0,1,15.22,0Z"/><path class="cls-1" d="M685,1.06A14.64,14.64,0,0,1,699.64,15.7V386.42A14.63,14.63,0,0,1,685,401.06H15.64A14.63,14.63,0,0,1,1,386.42V15.7A14.64,14.64,0,0,1,15.64,1.06H685m0-1H15.64A15.66,15.66,0,0,0,0,15.7V386.42a15.66,15.66,0,0,0,15.64,15.64H685a15.66,15.66,0,0,0,15.64-15.64V15.7A15.66,15.66,0,0,0,685,.06Z"/><rect class="cls-2" x="623.78" y="18.98" width="13.4" height="11.2"/><polygon class="cls-3" points="675.65 30.98 675.04 31.48 659.78 19.02 660.39 18.52 675.65 30.98"/><polygon class="cls-3" points="660.39 31.48 659.78 30.98 675.04 18.52 675.65 19.02 660.39 31.48"/><line class="cls-2" x1="585.53" y1="25.55" x2="602.2" y2="25.55"/><rect class="cls-3" x="87.74" y="13.65" width="463.9" height="22.71" rx="10.93"/><rect class="cls-3" x="15.08" y="24.28" width="14.9" height="1.45"/><polygon class="cls-3" points="20.96 19.08 22.17 20.14 15.76 25 22.17 29.86 20.96 30.92 13.16 25 20.96 19.08"/><g class="cls-4"><rect class="cls-3" x="45.68" y="24.28" width="14.9" height="1.45"/><polygon class="cls-3" points="54.7 19.08 53.49 20.14 59.9 25 53.49 29.86 54.7 30.92 62.5 25 54.7 19.08"/></g></g></g></svg>